<svg xmlns="http://www.w3.org/2000/svg">
  <defs>
    <symbol id="icon-runner-new" viewBox="0 0 60 60">
        <path d="M8.2975464,29.6002808c0,0.5499878,0.4499512,1,1,1h10.039978c0.5499878,0,1-0.4500122,1-1s-0.4500122-1-1-1H9.2975464  C8.7474976,28.6002808,8.2975464,29.050293,8.2975464,29.6002808z"/><path d="M10.3775024,26.7002563h5.5800171c0.5499878,0,1-0.4499512,1-1c0-0.5499878-0.4500122-1-1-1h-5.5800171  c-0.5499878,0-1,0.4500122-1,1C9.3775024,26.2503052,9.8275146,26.7002563,10.3775024,26.7002563z"/><path d="M5.9974976,33.5003052c0,0.5599976,0.4500122,1,1,1h10.0300293c0.5599976,0,1-0.4400024,1-1c0-0.5500488-0.4400024-1-1-1  H6.9974976C6.4475098,32.5003052,5.9974976,32.9502563,5.9974976,33.5003052z"/><path d="M36.7474976,11.5202637c0.0100098,2.9500122,2.2900391,5.2700195,5.1799927,5.2700195c0,0,0,0,0.0100098,0  c1.3699951,0,2.7399902-0.5700073,3.7300415-1.5700073c1-1,1.5499878-2.2999878,1.539978-3.6699829  c0-1.4200439-0.5499878-2.75-1.539978-3.7300415c-1.0100098-0.9899902-2.4000244-1.5299683-3.8099976-1.5099487  C38.9675293,6.3302612,36.7175293,8.6203003,36.7474976,11.5202637z"/><path d="M50.8275146,25.5603027c-2.5800171-0.0599976-4.4699707-0.1000366-5.5899658-0.0900269  c-0.5600586,0.0100098-0.8000488-0.0800171-1.1400146-0.7000122c-0.6000366-1.0899658-1.210022-2.1799927-1.8500366-3.25  c-0.0299683-0.0599976-0.0700073-0.1099854-0.1199951-0.1599731c-0.0299683-0.0400391-0.0799561-0.0800171-0.1199951-0.1199951  l-6.6499634-6.3699951c-2.7600098-2.6400146-7.0300293-2.9400024-10.1500244-0.7200317  c-3.5499878,2.539978-7.5599976,5.6099854-7.6300049,5.6699829c-0.5999756,0.5-1.0800171,1.3099976-1.2399902,2.1199951  c-0.2399902,1.3000488,0.3800049,2.5,1.6400146,3.1400146c1.1900024,0.6000366,2.4400024,0.4400024,3.5299683-0.4400024  c0.7900391-0.6399536,1.5800171-1.289978,2.3699951-1.9299927c0.960022-0.789978,1.9200439-1.5700073,2.8900146-2.3499756  c0.1400146-0.1099854,0.2299805-0.1700439,0.289978-0.2000122c0.9200439,0.1500244,1.8500366,0.3499756,2.7600098,0.5499878  l-0.6499634,1.0200195c-3.1900024,5.039978-6.4800415,10.25-10.4500122,14.789978  c-0.0599976,0.0599976-0.2600098,0.1500244-0.4500122,0.1300049c-0.6900024-0.0200195-1.9799805-0.039978-3.4299927-0.0599976  c-1.3099976-0.0299683-2.7399902-0.0499878-3.960022-0.0700073c-0.9199829-0.0100098-1.8299561,0.3300171-2.5,0.9899902  c-0.6699829,0.6500244-1.039978,1.5300293-1.039978,2.460022c0,0.9199829,0.3499756,1.7700195,0.9799805,2.4199829  c0.6199951,0.6400146,1.460022,1.0100098,2.3599854,1.0499878l8.6000366,0.3000488  c1.7999878,0.1699829,3.1699829-0.4299927,4.2199707-1.8500366c0.8300171-1.1399536,1.710022-2.2399902,2.6400146-3.3899536  c0.210022-0.25,0.4100342-0.5,0.6099854-0.75c1.3800049,0.9699707,2.7300415,1.9199829,4.1000366,2.8899536l1.7699585,1.2399902  c-0.4599609,0.8900146-0.9099731,1.7600098-1.3599854,2.6200562c-0.6499634,1.25-1.289978,2.4699707-1.9199829,3.6999512  c-1.0800171,2.1000366-0.5499878,4.0900269,1.3399658,5.0900269c0.5100098,0.2700195,1.0500488,0.3999634,1.5800171,0.3999634  c0.3200073,0,0.6300049-0.0499878,0.9500122-0.1399536c0.9400024-0.2999878,1.7700195-1.0499878,2.3300171-2.1000366  c1.4699707-2.8099976,2.9400024-5.6300049,4.3899536-8.4499512c1.1500244-2.2200317,0.7400513-3.9400024-1.289978-5.4100342  c-1.7199707-1.2600098-3.460022-2.5100098-5.2199707-3.7799683l-0.4299927-0.3099976l1.8299561-2.7900391  c0.8200073-1.2600098,1.6400146-2.5200195,2.4800415-3.7999878l0.0899658,0.1500244  c0.5200195,0.9199829,1.0100098,1.789978,1.4899902,2.6599731c0.6799927,1.2700195,1.7700195,1.9299927,3.2399902,1.9799805  l8.6500244,0.1799927c0.8699951-0.0099487,1.7299805-0.3499756,2.3400269-0.9799805  c0.6099854-0.6400146,0.9400024-1.5100098,0.8899536-2.3900146C53.9075317,26.9002686,52.5175171,25.6102905,50.8275146,25.5603027z"/>
    </symbol>
    <symbol id="sneakers" viewBox="0 0 80 110">
        <path d="M36.63,76.08a1.73,1.73,0,0,1-.45,0,2,2,0,0,1-.44-3.95L96,58.34c-.5-2.16-1.11-4.76-2-7.87-2.59-9.35-7.52-11.59-8.07-11.82a2,2,0,0,0-2.51.9,26.17,26.17,0,0,0-1.26,2.69A2.18,2.18,0,0,1,81,43.32h0c-.23.06-8.51,2.15-12.08,2.75-1.67.29-5.39-2.81-7.41-5.16a2,2,0,0,0-1.4-.69,2,2,0,0,0-1.47.52l-6.25,5.68,7.29,6.34a2,2,0,0,1,.19,2.82,2,2,0,0,1-1.51.69,2,2,0,0,1-1.31-.49l-7.65-6.65-2.86,2.58,3.74,3.18A2,2,0,0,1,49,58.41a2,2,0,0,1-1.3-.48L43.56,54.4c-1.19,1.07-2.24,2-3,2.68a29.92,29.92,0,0,1-7,4.19c-5.07,2.43-10.83,5.18-9.87,13.89A6.9,6.9,0,0,0,26.1,80a7.49,7.49,0,0,0,4.62,1.52,5.09,5.09,0,0,0,.67,0l.22,0L91,67.89a7.88,7.88,0,0,0,4.65-3.17,5.65,5.65,0,0,0,.83-2.39Z"/>
    </symbol>
    <symbol id="icon-runners" viewBox="0 0 100 125">
        <path d="M28.098,37.303c-1.938-3.454-0.708-7.825,2.746-9.764c3.454-1.938,7.825-0.709,9.763,2.746   c1.938,3.454,0.708,7.824-2.747,9.762C34.406,41.985,30.035,40.756,28.098,37.303z M14.449,79.304h18.342l0.138-3.906H20.9   L14.449,79.304z M9.565,58.128c1.067,1.194,2.912,1.083,4.039,0.214l10.411-9.364l-1.348,8.515l-6.301,11.496l-9.229,4.933   c-2.797,2.03-1.671,4.327-1.214,4.963c0.685,0.958,2.599,2.328,4.832,0.944l11.618-7.034l4.404-8.117l7.774,6.276L34.099,83.78   c0.058,1.978,1.823,3.181,3.366,3.193c2.011-0.05,3.277-1.317,3.462-3.496l0.359-10.772c0.054-2.029,0.468-4.523-1.035-5.829   l-7.832-6.987l1.419-7.181l4.679,6.482l10.352,0.49c2.166,0.079,3.133-1.515,3.212-2.841c0.157-1.585-1.283-2.844-2.554-3.02   l-8.409-0.346l-5.929-10.506c-0.401-0.236-5.511-3.046-5.996-3.214c-0.864-0.288-2.966,0.313-3.745,0.992L9.921,53.656   C8.761,54.729,8.032,56.365,9.565,58.128z M87.611,18.785c3.008-1.687,4.078-5.491,2.391-8.498   c-1.687-3.007-5.491-4.076-8.498-2.39c-3.007,1.688-4.078,5.492-2.391,8.498C80.8,19.402,84.604,20.472,87.611,18.785z    M41.423,51.034h16.399c-0.039-1.236,0.455-2.667,2.129-3.906H39.218L41.423,51.034z M97.767,30.773l-7.319-0.301l-5.161-9.145   c-0.349-0.205-4.797-2.651-5.219-2.798c-0.752-0.25-2.581,0.272-3.261,0.863L63.293,30.631c-1.012,0.934-1.645,2.358-0.311,3.892   c0.929,1.04,2.533,0.942,3.516,0.186l9.062-8.15l-1.173,7.411l-5.484,10.006l-8.033,4.294c-2.435,1.767-1.454,3.766-1.057,4.32   c0.597,0.833,2.262,2.026,4.205,0.821l10.113-6.123l3.834-7.065l6.767,5.463l-0.395,11.166c0.051,1.722,1.587,2.77,2.931,2.779   c1.75-0.043,2.853-1.146,3.014-3.043l0.313-9.376c0.047-1.766,0.408-3.938-0.9-5.074l-6.818-6.083l1.236-6.25l4.072,5.642   l9.01,0.427c1.887,0.069,2.729-1.318,2.797-2.472C100.127,32.022,98.873,30.926,97.767,30.773z M92.063,47.128   c-0.001,0.041-0.004-0.04-0.004,0l-0.127,3.906H100v-3.906H92.063z M15.481,47.128H0v3.906h10.784L15.481,47.128z M82.883,50.17   l0.172-3.042h-7.17l-0.655,1.208l-4.456,2.698h3.093l-4.991,10.407H36.361l4.378,3.906h26.262l-4.819,10.05H42.662l-0.131,3.906   H60.31l-4.647,9.692H0v3.906h100v-3.906H64.337l4.64-9.692H100v-3.906H70.846l4.811-10.05H100v-3.906H77.525L82.883,50.17z    M4.13,75.397H0v3.906h4.462C3.946,78.361,3.578,76.905,4.13,75.397z M18.832,61.441H0v3.906h16.691L18.832,61.441z"/>
    </symbol>
    <symbol id="icon-sports-ranking" viewBox="0 0 50 62.5">
        <path d="M16.8,19H5c-0.8,0-1.5,0.7-1.5,1.5v13.3h13.4V19z M10.1,30.3c-2.2,0-3.9-1.8-3.9-3.9s1.8-3.9,3.9-3.9   c2.2,0,3.9,1.8,3.9,3.9S12.3,30.3,10.1,30.3z"/><path d="M32.2,13.3c0-0.8-0.7-1.5-1.5-1.5H19.3c-0.8,0-1.5,0.7-1.5,1.5v20.5h14.4V13.3z M25,23.3c-2.1,0-3.9-1.8-3.9-3.9   c0-2.2,1.8-3.9,3.9-3.9c2.2,0,3.9,1.8,3.9,3.9C28.9,21.6,27.2,23.3,25,23.3z"/><path d="M46.5,20.5c0-0.8-0.7-1.5-1.5-1.5H33.2v14.8h13.4V20.5z M39.9,30.3c-2.2,0-3.9-1.8-3.9-3.9s1.8-3.9,3.9-3.9   c2.2,0,3.9,1.8,3.9,3.9S42,30.3,39.9,30.3z"/><path d="M48.4,34.8H1.6c-0.4,0-0.6,0.3-0.6,0.6v2.1c0,0.4,0.3,0.6,0.6,0.6h46.7c0.4,0,0.6-0.3,0.6-0.6v-2.1   C49,35.1,48.7,34.8,48.4,34.8z"/><polygon points="24.1,18 24.9,18 24.9,21.7 25.9,21.7 25.9,17.1 24.1,17.1  "/><path d="M10.8,26.7c0.3-0.3,0.6-0.6,0.7-0.8c0.1-0.2,0.2-0.4,0.2-0.7c0-0.4-0.2-0.8-0.5-1c-0.3-0.3-0.7-0.4-1-0.4   c-0.4,0-0.7,0.1-1,0.3c-0.3,0.2-0.5,0.4-0.7,0.8l0.8,0.5c0.3-0.4,0.5-0.6,0.8-0.6c0.2,0,0.3,0.1,0.4,0.2c0.1,0.1,0.2,0.2,0.2,0.4   c0,0.2-0.1,0.3-0.2,0.5c-0.1,0.2-0.3,0.4-0.6,0.7l-1.4,1.4v0.8h3.3v-0.9H10L10.8,26.7z"/><path d="M40.3,25.9l0.9-1.1v-0.7h-2.8V25h1.5L39,26v0.8c0.3-0.1,0.5-0.1,0.6-0.1c0.3,0,0.5,0.1,0.6,0.2c0.2,0.1,0.2,0.3,0.2,0.5   c0,0.2-0.1,0.3-0.2,0.4c-0.1,0.1-0.3,0.2-0.5,0.2c-0.3,0-0.7-0.2-1.2-0.5l-0.4,0.8c0.5,0.4,1,0.5,1.6,0.5s0.9-0.1,1.3-0.4   c0.3-0.3,0.5-0.7,0.5-1.1c0-0.3-0.1-0.6-0.3-0.9C41,26.1,40.7,25.9,40.3,25.9z"/>
    </symbol>
    <symbol id="icon-track1" viewBox="0 0 32 40.00000125">
        <g transform="translate(0,-1020.3622)"><path style="color:#000000;font-style:normal;font-variant:normal;font-weight:normal;font-stretch:normal;font-size:medium;line-height:normal;font-family:sans-serif;text-indent:0;text-align:start;text-decoration:none;text-decoration-line:none;text-decoration-style:solid;text-decoration-color:#000000;letter-spacing:normal;word-spacing:normal;text-transform:none;direction:ltr;block-progression:tb;writing-mode:lr-tb;baseline-shift:baseline;text-anchor:start;white-space:normal;clip-rule:nonzero;display:inline;overflow:visible;visibility:visible;opacity:1;isolation:auto;mix-blend-mode:normal;color-interpolation:sRGB;color-interpolation-filters:linearRGB;solid-color:#000000;solid-opacity:1;fill:#000000;fill-opacity:1;fill-rule:nonzero;stroke:none;stroke-width:0.19843753;stroke-linecap:round;stroke-linejoin:round;stroke-miterlimit:4;stroke-dasharray:none;stroke-dashoffset:0;stroke-opacity:1;color-rendering:auto;image-rendering:auto;shape-rendering:auto;text-rendering:auto;enable-background:accumulate" d="m 16.004508,1022.2366 c 7.80548,0 14.12107,6.3156 14.12107,14.1211 0,6.1174 -3.886677,11.3094 -9.32228,13.2754 l -1.382815,-1.3848 c 5.167898,-1.4865 8.955098,-6.2469 8.955098,-11.8906 0,-6.8301 -5.540976,-12.371 -12.371073,-12.371 -6.8300968,0 -12.378934,5.5409 -12.378934,12.371 0,6.8301 5.5488372,12.3809 12.378934,12.3809 0.894577,0 1.764699,-0.1006 2.605493,-0.2812 l -0.02268,0.023 1.421896,1.4239 c -1.270791,0.3753 -2.612787,0.5839 -4.005883,0.5839 -7.8055178,0 -14.1289314,-6.3233 -14.1289314,-14.1289 0,-7.8054 6.3234136,-14.1211 14.1289314,-14.1211 z"/><path style="color:#000000;font-style:normal;font-variant:normal;font-weight:normal;font-stretch:normal;font-size:medium;line-height:normal;font-family:sans-serif;text-indent:0;text-align:start;text-decoration:none;text-decoration-line:none;text-decoration-style:solid;text-decoration-color:#000000;letter-spacing:normal;word-spacing:normal;text-transform:none;direction:ltr;block-progression:tb;writing-mode:lr-tb;baseline-shift:baseline;text-anchor:start;white-space:normal;clip-rule:nonzero;display:inline;overflow:visible;visibility:visible;opacity:1;isolation:auto;mix-blend-mode:normal;color-interpolation:sRGB;color-interpolation-filters:linearRGB;solid-color:#000000;solid-opacity:1;fill:#000000;fill-opacity:1;fill-rule:nonzero;stroke:none;stroke-width:0.19843753;stroke-linecap:round;stroke-linejoin:round;stroke-miterlimit:4;stroke-dasharray:none;stroke-dashoffset:0;stroke-opacity:1;color-rendering:auto;image-rendering:auto;shape-rendering:auto;text-rendering:auto;enable-background:accumulate" d="m 16.004508,1024.7327 c 6.424781,0 11.626998,5.2002 11.626998,11.625 0,4.363 -2.403326,8.1576 -5.955099,10.1465 l -1.3008,-1.3008 c 3.257575,-1.6155 5.505902,-4.9673 5.505902,-8.8457 0,-5.4494 -4.427603,-9.8691 -9.877001,-9.8691 -5.449398,0 -9.8769248,4.4197 -9.8769248,9.8691 0,5.4494 4.4275268,9.877 9.8769248,9.877 1.286098,0 2.511194,-0.2548 3.638702,-0.7032 l 1.330091,1.3262 c -1.50822,0.7145 -3.187993,1.127 -4.968793,1.127 -6.4248181,0 -11.6269215,-5.2023 -11.6269215,-11.627 0,-6.4248 5.2021034,-11.625 11.6269215,-11.625 z"/><path style="color:#000000;font-style:normal;font-variant:normal;font-weight:normal;font-stretch:normal;font-size:medium;line-height:normal;font-family:sans-serif;text-indent:0;text-align:start;text-decoration:none;text-decoration-line:none;text-decoration-style:solid;text-decoration-color:#000000;letter-spacing:normal;word-spacing:normal;text-transform:none;direction:ltr;block-progression:tb;writing-mode:lr-tb;baseline-shift:baseline;text-anchor:start;white-space:normal;clip-rule:nonzero;display:inline;overflow:visible;visibility:visible;opacity:1;isolation:auto;mix-blend-mode:normal;color-interpolation:sRGB;color-interpolation-filters:linearRGB;solid-color:#000000;solid-opacity:1;fill:#000000;fill-opacity:1;fill-rule:nonzero;stroke:none;stroke-width:0.19843753;stroke-linecap:round;stroke-linejoin:round;stroke-miterlimit:4;stroke-dasharray:none;stroke-dashoffset:0;stroke-opacity:1;color-rendering:auto;image-rendering:auto;shape-rendering:auto;text-rendering:auto;enable-background:accumulate" d="m 16.004508,1027.2346 c 5.043968,0 9.123099,4.079 9.123099,9.1231 0,2.3885 -0.920996,4.5543 -2.420032,6.1797 l -1.240176,-1.2402 c 1.184202,-1.3087 1.912101,-3.0383 1.912101,-4.9395 0,-4.0687 -3.306406,-7.3731 -7.374992,-7.3731 -4.068699,0 -7.375029,3.3044 -7.375029,7.3731 0,4.0687 3.30633,7.375 7.375029,7.375 1.896794,0 3.622186,-0.725 4.929675,-1.9043 l 1.240214,1.2403 c -1.624289,1.4939 -3.785801,2.4141 -6.169889,2.4141 -5.044006,0 -9.1250257,-4.0811 -9.1250257,-9.1251 0,-5.0441 4.0810197,-9.1231 9.1250257,-9.1231 z"/><path style="color:#000000;font-style:normal;font-variant:normal;font-weight:normal;font-stretch:normal;font-size:medium;line-height:normal;font-family:sans-serif;text-indent:0;text-align:start;text-decoration:none;text-decoration-line:none;text-decoration-style:solid;text-decoration-color:#000000;letter-spacing:normal;word-spacing:normal;text-transform:none;direction:ltr;block-progression:tb;writing-mode:lr-tb;baseline-shift:baseline;text-anchor:start;white-space:normal;clip-rule:nonzero;display:inline;overflow:visible;visibility:visible;opacity:1;isolation:auto;mix-blend-mode:normal;color-interpolation:sRGB;color-interpolation-filters:linearRGB;solid-color:#000000;solid-opacity:1;fill:#000000;fill-opacity:1;fill-rule:nonzero;stroke:none;stroke-width:0.19843753;stroke-linecap:round;stroke-linejoin:round;stroke-miterlimit:4;stroke-dasharray:none;stroke-dashoffset:0;stroke-opacity:1;color-rendering:auto;image-rendering:auto;shape-rendering:auto;text-rendering:auto;enable-background:accumulate" d="m 16.004508,1029.7366 c 3.663269,0 6.621089,2.9578 6.621089,6.6211 0,0.637 -0.09487,1.2512 -0.261543,1.834 l -1.503912,-1.502 c 0.0076,-0.11 0.01512,-0.2199 0.01512,-0.3318 0,-2.6879 -2.183207,-4.8711 -4.871093,-4.8711 -2.688,0 -4.878916,2.1831 -4.878916,4.8711 0,2.6879 2.190916,4.8808 4.878916,4.8808 2.260875,0 4.149203,-1.5581 4.697272,-3.6504 l 1.384705,1.3907 c -1.013102,2.358 -3.350097,4.0078 -6.081977,4.0078 -3.66342,0 -6.6289127,-2.9656 -6.6289127,-6.6289 0,-3.6634 2.9656057,-6.6212 6.6289127,-6.6211 z"/><path style="color:#000000;font-style:normal;font-variant:normal;font-weight:normal;font-stretch:normal;font-size:medium;line-height:normal;font-family:sans-serif;text-indent:0;text-align:start;text-decoration:none;text-decoration-line:none;text-decoration-style:solid;text-decoration-color:#000000;letter-spacing:normal;word-spacing:normal;text-transform:none;direction:ltr;block-progression:tb;writing-mode:lr-tb;baseline-shift:baseline;text-anchor:start;white-space:normal;clip-rule:nonzero;display:inline;overflow:visible;visibility:visible;opacity:1;isolation:auto;mix-blend-mode:normal;color-interpolation:sRGB;color-interpolation-filters:linearRGB;solid-color:#000000;solid-opacity:1;fill:#000000;fill-opacity:1;fill-rule:nonzero;stroke:none;stroke-width:0.19843753;stroke-linecap:round;stroke-linejoin:round;stroke-miterlimit:4;stroke-dasharray:none;stroke-dashoffset:0;stroke-opacity:1;color-rendering:auto;image-rendering:auto;shape-rendering:auto;text-rendering:auto;enable-background:accumulate" d="m 16.004508,1032.2328 c 2.28257,0 4.126979,1.8423 4.126979,4.1249 0,2.2826 -1.844409,4.1269 -4.126979,4.1269 -2.282607,0 -4.126903,-1.8443 -4.126903,-4.1269 0,-2.2826 1.844296,-4.1249 4.126903,-4.1249 z"/></g>
    </symbol>
    <symbol id="icon-track2" viewBox="0 0 24 30">
        <path d="M8,23,18.593,12.499A1.3963,1.3963,0,0,0,19,11.488v-.007a1.39,1.39,0,0,0-1.39-1.361H13.333a1.39,1.39,0,0,1-1.389-1.362V8.752a1.3883,1.3883,0,0,1,.407-1.011L19,1H17L6.379,9.681a1.3883,1.3883,0,0,0-.407,1.011v.006a1.39,1.39,0,0,0,1.39,1.362h4.276a1.39,1.39,0,0,1,1.39,1.362v.006a1.3883,1.3883,0,0,1-.407,1.011L4,23Z"/><path d="M21.4213,18.8974A.9952.9952,0,0,0,21.7982,17.4l-.3769-.5025A.9952.9952,0,0,0,21.7982,15.4l-1-1.333a.9993.9993,0,0,0-1.6,0l-1,1.333a.9945.9945,0,0,0,.3769,1.4975l-.3769.5025a.9945.9945,0,0,0,.3769,1.4975l-.3769.5025a1,1,0,0,0,.8,1.6h.75v2a.25.25,0,0,0,.5,0V21h.75a1,1,0,0,0,.8-1.6Z"/><path d="M4.4247,14.8975A.9946.9946,0,0,0,4.8017,13.4l-.377-.5024A.9946.9946,0,0,0,4.8017,11.4l-1-1.333a.9993.9993,0,0,0-1.6,0l-1,1.333a.9951.9951,0,0,0,.377,1.4975l-.377.5025a.9951.9951,0,0,0,.377,1.4975l-.377.5025a1,1,0,0,0,.8,1.6h.75v2a.25.25,0,0,0,.5,0V17h.75a1,1,0,0,0,.8-1.6Z"/><path d="M7.1785,4.3571a.9873.9873,0,0,0,.098-1.04l-.0294-.0588a.9879.9879,0,0,0,.0294-.9412l-.382-.764a1,1,0,0,0-1.789,0l-.382.764a.9879.9879,0,0,0,.0294.9412l-.0294.0588a.9873.9873,0,0,0,.098,1.04l-.098.196A1,1,0,0,0,5.6185,6H5.75V8a.25.25,0,0,0,.5,0V6h.1315a1,1,0,0,0,.895-1.447Z"/><path d="M22.8932,6.5531l-.098-.196a.9873.9873,0,0,0,.098-1.04l-.0294-.0588a.9879.9879,0,0,0,.0294-.9412l-.382-.764a1,1,0,0,0-1.789,0l-.382.764a.9879.9879,0,0,0,.0294.9412l-.0294.0588a.9873.9873,0,0,0,.098,1.04l-.098.196A1,1,0,0,0,21.2352,8h.1315v2a.25.25,0,0,0,.5,0V8h.1315A1,1,0,0,0,22.8932,6.5531Z"/>
    </symbol>
    <symbol id="icon-track3" viewBox="0 0 64 80">
        <path d="M56,6.998c-4.411,0-8,3.589-8,8c0,1.103-0.897,2-2,2s-2-0.897-2-2c0-4.411-3.589-8-8-8s-8,3.589-8,8v18   c0,1.103-0.897,2-2,2s-2-0.897-2-2c0-0.001,0-0.001,0-0.002s0-0.001,0-0.002c0-6.618-5.382-12.002-11.998-12.002   C5.384,20.992,0,26.376,0,32.994v10.99c0,7.168,5.832,13,13,13h33.913c0.03,0.003,0.056,0.018,0.087,0.018s0.057-0.015,0.087-0.018   H49c8.262,0,14.982-6.713,14.998-14.972c0-0.002,0.002-0.004,0.002-0.007V14.998C64,10.587,60.411,6.998,56,6.998z M62,41.984   c0,7.168-5.832,13-13,13h-1v-1.977h1c0,0,0,0,0.001,0C55.066,53.006,60,48.071,60,42.006V14.998c0-2.206-1.794-4-4-4s-4,1.794-4,4   c0,3.309-2.691,6-6,6s-6-2.691-6-6c0-2.206-1.794-4-4-4s-4,1.794-4,4v18c0,3.309-2.691,6-6,6s-6-2.691-6-6   c0-0.009-0.005-0.016-0.005-0.023c-0.01-4.401-3.592-7.979-7.995-7.979c-4.401,0-7.982,3.574-7.995,7.973   C4.005,32.978,4,32.985,4,32.994v10.884c-0.004,0.036-0.021,0.068-0.021,0.106c0,4.976,4.047,9.023,9.021,9.023h33v1.977H13   c-6.065,0-11-4.935-11-11v-10.99c0-5.515,4.487-10.002,10.002-10.002c5.513,0,9.998,4.487,9.998,10.002c0,0.001,0,0.001,0,0.002   s0,0.001,0,0.002c0,2.206,1.794,4,4,4s4-1.794,4-4v-18c0-3.309,2.691-6,6-6s6,2.691,6,6c0,2.206,1.794,4,4,4s4-1.794,4-4   c0-3.309,2.691-6,6-6s6,2.691,6,6V41.984z M13,51.008c-3.844,0-6.971-3.104-7.018-6.938C5.985,44.04,6,44.015,6,43.984V33.012   c0-0.007,0.004-0.013,0.004-0.02c0-3.307,2.689-5.996,5.996-5.996s5.996,2.689,5.996,5.996c0,0.009,0.005,0.016,0.005,0.023   c0.01,4.403,3.594,7.982,7.999,7.982c4.411,0,8-3.589,8-8v-18c0-1.103,0.897-2,2-2s2,0.897,2,2c0,4.411,3.589,8,8,8s8-3.589,8-8   c0-1.103,0.897-2,2-2s2,0.897,2,2v27.008c0,4.964-4.038,9.002-9.002,9.002H48v-4.002c0-0.553-0.447-1-1-1   c-0.164,0-0.313,0.049-0.449,0.119L44,43.574v-0.586c0-0.553-0.447-1-1-1s-1,0.447-1,1v8.02H13z M44,46.402l2,2v1.174l-2-2V46.402z    M44,50.404l0.604,0.604H44V50.404z"/>
    </symbol>
    <symbol id="icon-track4" viewBox="-5.0 -10.0 110.0 135.0">
        <path d="m84.172 15.828c-12.766-12.766-33.547-12.766-46.297 0l-22.047 22.047c-12.766 12.766-12.766 33.531 0 46.297 6.3906 6.375 14.766 9.5781 23.156 9.5781s16.766-3.1875 23.156-9.5781l22.047-22.047c12.766-12.766 12.766-33.531 0-46.297zm-7.7188 38.578-22.047 22.047c-8.5156 8.5-22.359 8.5-30.859 0-8.5-8.5156-8.5-22.359 0-30.859l11.016-11.016 3.2969 3.2969-11.016 11.016c-6.6875 6.6875-6.6875 17.562 0 24.25 3.3438 3.3438 7.7344 5.0156 12.125 5.0156s8.7812-1.6719 12.125-5.0156l22.047-22.047c6.6875-6.6875 6.6875-17.562 0-24.25s-17.562-6.6875-24.25 0l-2.2031 2.2031-3.2969-3.2969 2.2031-2.2031c4.25-4.25 9.8438-6.375 15.438-6.375s11.172 2.125 15.438 6.375c8.5 8.5156 8.5 22.359 0 30.859zm-31.969-23.141-4.4062 4.4062-3.2969-3.2969 4.4062-4.4062zm5.5156 5.5156-4.4062 4.4062-3.2969-3.2969 4.4062-4.4062zm6.625-2.2031c1.1719-1.1719 2.75-1.8281 4.4062-1.8281s3.2344 0.65625 4.4062 1.8281 1.8281 2.75 1.8281 4.4062-0.65625 3.2344-1.8281 4.4062l-22.047 22.047c-1.1719 1.1719-2.75 1.8281-4.4062 1.8281s-3.2344-0.65625-4.4062-1.8281-1.8281-2.75-1.8281-4.4062 0.65625-3.2344 1.8281-4.4062zm-16.531 5.5156 3.2969 3.2969-11.016 11.016c-1.7656 1.7656-2.7344 4.1094-2.7344 6.6094s0.96875 4.8438 2.7344 6.6094 4.1094 2.7344 6.6094 2.7344 4.8438-0.96875 6.6094-2.7344l22.047-22.047c1.7656-1.7656 2.7344-4.1094 2.7344-6.6094s-0.96875-4.8438-2.7344-6.6094-4.1094-2.7344-6.6094-2.7344-4.8438 0.96875-6.6094 2.7344l-2.2031 2.2031-3.2969-3.2969 2.2031-2.2031c2.7344-2.7344 6.3281-4.0938 9.9219-4.0938s7.1875 1.3594 9.9219 4.0938c5.4688 5.4688 5.4688 14.375 0 19.844l-22.047 22.047c-5.4688 5.4688-14.375 5.4688-19.844 0s-5.4688-14.375 0-19.844zm-5.5156-9.9375-3.2969-3.2969 4.4062-4.4062 3.2969 3.2969zm47.391 29.766-22.047 22.047c-11.547 11.547-30.328 11.547-41.891 0-11.547-11.547-11.547-30.344 0-41.891l11.016-11.016 3.2969 3.2969-11.016 11.016c-9.7188 9.7344-9.7188 25.547 0 35.281 4.8594 4.8594 11.25 7.2969 17.641 7.2969s12.781-2.4375 17.641-7.2969l22.047-22.047c9.7188-9.7344 9.7188-25.547 0-35.281-9.7344-9.7344-25.562-9.7188-35.281 0l-2.2031 2.2031-3.2969-3.2969 2.2031-2.2031c5.7812-5.7812 13.359-8.6562 20.938-8.6562s15.172 2.8906 20.938 8.6562c11.547 11.547 11.547 30.344 0 41.891z"/>
    </symbol>

    <!-- Icons go here -->
  </defs>
</svg>