<svg xmlns="http://www.w3.org/2000/svg" xmlns:xlink="http://www.w3.org/1999/xlink" version="1.1" x="0px" y="0px" viewBox="0 0 100 125" style="enable-background:new 0 0 100 100;" xml:space="preserve"><g><path d="M28.098,37.303c-1.938-3.454-0.708-7.825,2.746-9.764c3.454-1.938,7.825-0.709,9.763,2.746   c1.938,3.454,0.708,7.824-2.747,9.762C34.406,41.985,30.035,40.756,28.098,37.303z M14.449,79.304h18.342l0.138-3.906H20.9   L14.449,79.304z M9.565,58.128c1.067,1.194,2.912,1.083,4.039,0.214l10.411-9.364l-1.348,8.515l-6.301,11.496l-9.229,4.933   c-2.797,2.03-1.671,4.327-1.214,4.963c0.685,0.958,2.599,2.328,4.832,0.944l11.618-7.034l4.404-8.117l7.774,6.276L34.099,83.78   c0.058,1.978,1.823,3.181,3.366,3.193c2.011-0.05,3.277-1.317,3.462-3.496l0.359-10.772c0.054-2.029,0.468-4.523-1.035-5.829   l-7.832-6.987l1.419-7.181l4.679,6.482l10.352,0.49c2.166,0.079,3.133-1.515,3.212-2.841c0.157-1.585-1.283-2.844-2.554-3.02   l-8.409-0.346l-5.929-10.506c-0.401-0.236-5.511-3.046-5.996-3.214c-0.864-0.288-2.966,0.313-3.745,0.992L9.921,53.656   C8.761,54.729,8.032,56.365,9.565,58.128z M87.611,18.785c3.008-1.687,4.078-5.491,2.391-8.498   c-1.687-3.007-5.491-4.076-8.498-2.39c-3.007,1.688-4.078,5.492-2.391,8.498C80.8,19.402,84.604,20.472,87.611,18.785z    M41.423,51.034h16.399c-0.039-1.236,0.455-2.667,2.129-3.906H39.218L41.423,51.034z M97.767,30.773l-7.319-0.301l-5.161-9.145   c-0.349-0.205-4.797-2.651-5.219-2.798c-0.752-0.25-2.581,0.272-3.261,0.863L63.293,30.631c-1.012,0.934-1.645,2.358-0.311,3.892   c0.929,1.04,2.533,0.942,3.516,0.186l9.062-8.15l-1.173,7.411l-5.484,10.006l-8.033,4.294c-2.435,1.767-1.454,3.766-1.057,4.32   c0.597,0.833,2.262,2.026,4.205,0.821l10.113-6.123l3.834-7.065l6.767,5.463l-0.395,11.166c0.051,1.722,1.587,2.77,2.931,2.779   c1.75-0.043,2.853-1.146,3.014-3.043l0.313-9.376c0.047-1.766,0.408-3.938-0.9-5.074l-6.818-6.083l1.236-6.25l4.072,5.642   l9.01,0.427c1.887,0.069,2.729-1.318,2.797-2.472C100.127,32.022,98.873,30.926,97.767,30.773z M92.063,47.128   c-0.001,0.041-0.004-0.04-0.004,0l-0.127,3.906H100v-3.906H92.063z M15.481,47.128H0v3.906h10.784L15.481,47.128z M82.883,50.17   l0.172-3.042h-7.17l-0.655,1.208l-4.456,2.698h3.093l-4.991,10.407H36.361l4.378,3.906h26.262l-4.819,10.05H42.662l-0.131,3.906   H60.31l-4.647,9.692H0v3.906h100v-3.906H64.337l4.64-9.692H100v-3.906H70.846l4.811-10.05H100v-3.906H77.525L82.883,50.17z    M4.13,75.397H0v3.906h4.462C3.946,78.361,3.578,76.905,4.13,75.397z M18.832,61.441H0v3.906h16.691L18.832,61.441z"/></g><text x="0" y="115" fill="#000000" font-size="5px" font-weight="bold" font-family="'Helvetica Neue', Helvetica, Arial-Unicode, Arial, Sans-serif">Created by b farias</text><text x="0" y="120" fill="#000000" font-size="5px" font-weight="bold" font-family="'Helvetica Neue', Helvetica, Arial-Unicode, Arial, Sans-serif">from the Noun Project</text></svg>