<svg xmlns="http://www.w3.org/2000/svg" data-name="Layer 1" viewBox="0 0 120 150" x="0px" y="0px"><title>fashion-solid-expanded</title><path d="M36.63,76.08a1.73,1.73,0,0,1-.45,0,2,2,0,0,1-.44-3.95L96,58.34c-.5-2.16-1.11-4.76-2-7.87-2.59-9.35-7.52-11.59-8.07-11.82a2,2,0,0,0-2.51.9,26.17,26.17,0,0,0-1.26,2.69A2.18,2.18,0,0,1,81,43.32h0c-.23.06-8.51,2.15-12.08,2.75-1.67.29-5.39-2.81-7.41-5.16a2,2,0,0,0-1.4-.69,2,2,0,0,0-1.47.52l-6.25,5.68,7.29,6.34a2,2,0,0,1,.19,2.82,2,2,0,0,1-1.51.69,2,2,0,0,1-1.31-.49l-7.65-6.65-2.86,2.58,3.74,3.18A2,2,0,0,1,49,58.41a2,2,0,0,1-1.3-.48L43.56,54.4c-1.19,1.07-2.24,2-3,2.68a29.92,29.92,0,0,1-7,4.19c-5.07,2.43-10.83,5.18-9.87,13.89A6.9,6.9,0,0,0,26.1,80a7.49,7.49,0,0,0,4.62,1.52,5.09,5.09,0,0,0,.67,0l.22,0L91,67.89a7.88,7.88,0,0,0,4.65-3.17,5.65,5.65,0,0,0,.83-2.39Z"/><text x="0" y="135" fill="#000000" font-size="5px" font-weight="bold" font-family="'Helvetica Neue', Helvetica, Arial-Unicode, Arial, Sans-serif">Created by Ary Prasetyo</text><text x="0" y="140" fill="#000000" font-size="5px" font-weight="bold" font-family="'Helvetica Neue', Helvetica, Arial-Unicode, Arial, Sans-serif">from the Noun Project</text></svg>