<svg xmlns="http://www.w3.org/2000/svg" version="1.1" viewBox="-5.0 -10.0 110.0 135.0">
 <path d="m84.172 15.828c-12.766-12.766-33.547-12.766-46.297 0l-22.047 22.047c-12.766 12.766-12.766 33.531 0 46.297 6.3906 6.375 14.766 9.5781 23.156 9.5781s16.766-3.1875 23.156-9.5781l22.047-22.047c12.766-12.766 12.766-33.531 0-46.297zm-7.7188 38.578-22.047 22.047c-8.5156 8.5-22.359 8.5-30.859 0-8.5-8.5156-8.5-22.359 0-30.859l11.016-11.016 3.2969 3.2969-11.016 11.016c-6.6875 6.6875-6.6875 17.562 0 24.25 3.3438 3.3438 7.7344 5.0156 12.125 5.0156s8.7812-1.6719 12.125-5.0156l22.047-22.047c6.6875-6.6875 6.6875-17.562 0-24.25s-17.562-6.6875-24.25 0l-2.2031 2.2031-3.2969-3.2969 2.2031-2.2031c4.25-4.25 9.8438-6.375 15.438-6.375s11.172 2.125 15.438 6.375c8.5 8.5156 8.5 22.359 0 30.859zm-31.969-23.141-4.4062 4.4062-3.2969-3.2969 4.4062-4.4062zm5.5156 5.5156-4.4062 4.4062-3.2969-3.2969 4.4062-4.4062zm6.625-2.2031c1.1719-1.1719 2.75-1.8281 4.4062-1.8281s3.2344 0.65625 4.4062 1.8281 1.8281 2.75 1.8281 4.4062-0.65625 3.2344-1.8281 4.4062l-22.047 22.047c-1.1719 1.1719-2.75 1.8281-4.4062 1.8281s-3.2344-0.65625-4.4062-1.8281-1.8281-2.75-1.8281-4.4062 0.65625-3.2344 1.8281-4.4062zm-16.531 5.5156 3.2969 3.2969-11.016 11.016c-1.7656 1.7656-2.7344 4.1094-2.7344 6.6094s0.96875 4.8438 2.7344 6.6094 4.1094 2.7344 6.6094 2.7344 4.8438-0.96875 6.6094-2.7344l22.047-22.047c1.7656-1.7656 2.7344-4.1094 2.7344-6.6094s-0.96875-4.8438-2.7344-6.6094-4.1094-2.7344-6.6094-2.7344-4.8438 0.96875-6.6094 2.7344l-2.2031 2.2031-3.2969-3.2969 2.2031-2.2031c2.7344-2.7344 6.3281-4.0938 9.9219-4.0938s7.1875 1.3594 9.9219 4.0938c5.4688 5.4688 5.4688 14.375 0 19.844l-22.047 22.047c-5.4688 5.4688-14.375 5.4688-19.844 0s-5.4688-14.375 0-19.844zm-5.5156-9.9375-3.2969-3.2969 4.4062-4.4062 3.2969 3.2969zm47.391 29.766-22.047 22.047c-11.547 11.547-30.328 11.547-41.891 0-11.547-11.547-11.547-30.344 0-41.891l11.016-11.016 3.2969 3.2969-11.016 11.016c-9.7188 9.7344-9.7188 25.547 0 35.281 4.8594 4.8594 11.25 7.2969 17.641 7.2969s12.781-2.4375 17.641-7.2969l22.047-22.047c9.7188-9.7344 9.7188-25.547 0-35.281-9.7344-9.7344-25.562-9.7188-35.281 0l-2.2031 2.2031-3.2969-3.2969 2.2031-2.2031c5.7812-5.7812 13.359-8.6562 20.938-8.6562s15.172 2.8906 20.938 8.6562c11.547 11.547 11.547 30.344 0 41.891z"/>
<text x="0.0" y="117.5" font-size="5.0" font-weight="bold" font-family="Arbeit Regular, Helvetica, Arial-Unicode, Arial, Sans-serif" fill="#000000">Created by Satria Arnata</text><text x="0.0" y="122.5" font-size="5.0" font-weight="bold" font-family="Arbeit Regular, Helvetica, Arial-Unicode, Arial, Sans-serif" fill="#000000">from Noun Project</text></svg>