<svg xmlns="http://www.w3.org/2000/svg" data-name="Layer 10" viewBox="0 0 24 30" x="0px" y="0px"><title>Winter Sport</title><path d="M8,23,18.593,12.499A1.3963,1.3963,0,0,0,19,11.488v-.007a1.39,1.39,0,0,0-1.39-1.361H13.333a1.39,1.39,0,0,1-1.389-1.362V8.752a1.3883,1.3883,0,0,1,.407-1.011L19,1H17L6.379,9.681a1.3883,1.3883,0,0,0-.407,1.011v.006a1.39,1.39,0,0,0,1.39,1.362h4.276a1.39,1.39,0,0,1,1.39,1.362v.006a1.3883,1.3883,0,0,1-.407,1.011L4,23Z"/><path d="M21.4213,18.8974A.9952.9952,0,0,0,21.7982,17.4l-.3769-.5025A.9952.9952,0,0,0,21.7982,15.4l-1-1.333a.9993.9993,0,0,0-1.6,0l-1,1.333a.9945.9945,0,0,0,.3769,1.4975l-.3769.5025a.9945.9945,0,0,0,.3769,1.4975l-.3769.5025a1,1,0,0,0,.8,1.6h.75v2a.25.25,0,0,0,.5,0V21h.75a1,1,0,0,0,.8-1.6Z"/><path d="M4.4247,14.8975A.9946.9946,0,0,0,4.8017,13.4l-.377-.5024A.9946.9946,0,0,0,4.8017,11.4l-1-1.333a.9993.9993,0,0,0-1.6,0l-1,1.333a.9951.9951,0,0,0,.377,1.4975l-.377.5025a.9951.9951,0,0,0,.377,1.4975l-.377.5025a1,1,0,0,0,.8,1.6h.75v2a.25.25,0,0,0,.5,0V17h.75a1,1,0,0,0,.8-1.6Z"/><path d="M7.1785,4.3571a.9873.9873,0,0,0,.098-1.04l-.0294-.0588a.9879.9879,0,0,0,.0294-.9412l-.382-.764a1,1,0,0,0-1.789,0l-.382.764a.9879.9879,0,0,0,.0294.9412l-.0294.0588a.9873.9873,0,0,0,.098,1.04l-.098.196A1,1,0,0,0,5.6185,6H5.75V8a.25.25,0,0,0,.5,0V6h.1315a1,1,0,0,0,.895-1.447Z"/><path d="M22.8932,6.5531l-.098-.196a.9873.9873,0,0,0,.098-1.04l-.0294-.0588a.9879.9879,0,0,0,.0294-.9412l-.382-.764a1,1,0,0,0-1.789,0l-.382.764a.9879.9879,0,0,0,.0294.9412l-.0294.0588a.9873.9873,0,0,0,.098,1.04l-.098.196A1,1,0,0,0,21.2352,8h.1315v2a.25.25,0,0,0,.5,0V8h.1315A1,1,0,0,0,22.8932,6.5531Z"/><text x="0" y="39" fill="#000000" font-size="5px" font-weight="bold" font-family="'Helvetica Neue', Helvetica, Arial-Unicode, Arial, Sans-serif">Created by elastic1studio</text><text x="0" y="44" fill="#000000" font-size="5px" font-weight="bold" font-family="'Helvetica Neue', Helvetica, Arial-Unicode, Arial, Sans-serif">from the Noun Project</text></svg>