<svg xmlns="http://www.w3.org/2000/svg" xmlns:xlink="http://www.w3.org/1999/xlink" version="1.1" x="0px" y="0px" viewBox="0 0 50 62.5" style="enable-background:new 0 0 50 50;" xml:space="preserve"><g><path d="M16.8,19H5c-0.8,0-1.5,0.7-1.5,1.5v13.3h13.4V19z M10.1,30.3c-2.2,0-3.9-1.8-3.9-3.9s1.8-3.9,3.9-3.9   c2.2,0,3.9,1.8,3.9,3.9S12.3,30.3,10.1,30.3z"/><path d="M32.2,13.3c0-0.8-0.7-1.5-1.5-1.5H19.3c-0.8,0-1.5,0.7-1.5,1.5v20.5h14.4V13.3z M25,23.3c-2.1,0-3.9-1.8-3.9-3.9   c0-2.2,1.8-3.9,3.9-3.9c2.2,0,3.9,1.8,3.9,3.9C28.9,21.6,27.2,23.3,25,23.3z"/><path d="M46.5,20.5c0-0.8-0.7-1.5-1.5-1.5H33.2v14.8h13.4V20.5z M39.9,30.3c-2.2,0-3.9-1.8-3.9-3.9s1.8-3.9,3.9-3.9   c2.2,0,3.9,1.8,3.9,3.9S42,30.3,39.9,30.3z"/><path d="M48.4,34.8H1.6c-0.4,0-0.6,0.3-0.6,0.6v2.1c0,0.4,0.3,0.6,0.6,0.6h46.7c0.4,0,0.6-0.3,0.6-0.6v-2.1   C49,35.1,48.7,34.8,48.4,34.8z"/><polygon points="24.1,18 24.9,18 24.9,21.7 25.9,21.7 25.9,17.1 24.1,17.1  "/><path d="M10.8,26.7c0.3-0.3,0.6-0.6,0.7-0.8c0.1-0.2,0.2-0.4,0.2-0.7c0-0.4-0.2-0.8-0.5-1c-0.3-0.3-0.7-0.4-1-0.4   c-0.4,0-0.7,0.1-1,0.3c-0.3,0.2-0.5,0.4-0.7,0.8l0.8,0.5c0.3-0.4,0.5-0.6,0.8-0.6c0.2,0,0.3,0.1,0.4,0.2c0.1,0.1,0.2,0.2,0.2,0.4   c0,0.2-0.1,0.3-0.2,0.5c-0.1,0.2-0.3,0.4-0.6,0.7l-1.4,1.4v0.8h3.3v-0.9H10L10.8,26.7z"/><path d="M40.3,25.9l0.9-1.1v-0.7h-2.8V25h1.5L39,26v0.8c0.3-0.1,0.5-0.1,0.6-0.1c0.3,0,0.5,0.1,0.6,0.2c0.2,0.1,0.2,0.3,0.2,0.5   c0,0.2-0.1,0.3-0.2,0.4c-0.1,0.1-0.3,0.2-0.5,0.2c-0.3,0-0.7-0.2-1.2-0.5l-0.4,0.8c0.5,0.4,1,0.5,1.6,0.5s0.9-0.1,1.3-0.4   c0.3-0.3,0.5-0.7,0.5-1.1c0-0.3-0.1-0.6-0.3-0.9C41,26.1,40.7,25.9,40.3,25.9z"/></g><text x="0" y="65" fill="#000000" font-size="5px" font-weight="bold" font-family="'Helvetica Neue', Helvetica, Arial-Unicode, Arial, Sans-serif">Created by ProSymbols</text><text x="0" y="70" fill="#000000" font-size="5px" font-weight="bold" font-family="'Helvetica Neue', Helvetica, Arial-Unicode, Arial, Sans-serif">from the Noun Project</text></svg>