<svg xmlns="http://www.w3.org/2000/svg" xmlns:xlink="http://www.w3.org/1999/xlink" version="1.1" x="0px" y="0px" viewBox="0 0 64 80" enable-background="new 0 0 64 64" xml:space="preserve"><g><path d="M56,6.998c-4.411,0-8,3.589-8,8c0,1.103-0.897,2-2,2s-2-0.897-2-2c0-4.411-3.589-8-8-8s-8,3.589-8,8v18   c0,1.103-0.897,2-2,2s-2-0.897-2-2c0-0.001,0-0.001,0-0.002s0-0.001,0-0.002c0-6.618-5.382-12.002-11.998-12.002   C5.384,20.992,0,26.376,0,32.994v10.99c0,7.168,5.832,13,13,13h33.913c0.03,0.003,0.056,0.018,0.087,0.018s0.057-0.015,0.087-0.018   H49c8.262,0,14.982-6.713,14.998-14.972c0-0.002,0.002-0.004,0.002-0.007V14.998C64,10.587,60.411,6.998,56,6.998z M62,41.984   c0,7.168-5.832,13-13,13h-1v-1.977h1c0,0,0,0,0.001,0C55.066,53.006,60,48.071,60,42.006V14.998c0-2.206-1.794-4-4-4s-4,1.794-4,4   c0,3.309-2.691,6-6,6s-6-2.691-6-6c0-2.206-1.794-4-4-4s-4,1.794-4,4v18c0,3.309-2.691,6-6,6s-6-2.691-6-6   c0-0.009-0.005-0.016-0.005-0.023c-0.01-4.401-3.592-7.979-7.995-7.979c-4.401,0-7.982,3.574-7.995,7.973   C4.005,32.978,4,32.985,4,32.994v10.884c-0.004,0.036-0.021,0.068-0.021,0.106c0,4.976,4.047,9.023,9.021,9.023h33v1.977H13   c-6.065,0-11-4.935-11-11v-10.99c0-5.515,4.487-10.002,10.002-10.002c5.513,0,9.998,4.487,9.998,10.002c0,0.001,0,0.001,0,0.002   s0,0.001,0,0.002c0,2.206,1.794,4,4,4s4-1.794,4-4v-18c0-3.309,2.691-6,6-6s6,2.691,6,6c0,2.206,1.794,4,4,4s4-1.794,4-4   c0-3.309,2.691-6,6-6s6,2.691,6,6V41.984z M13,51.008c-3.844,0-6.971-3.104-7.018-6.938C5.985,44.04,6,44.015,6,43.984V33.012   c0-0.007,0.004-0.013,0.004-0.02c0-3.307,2.689-5.996,5.996-5.996s5.996,2.689,5.996,5.996c0,0.009,0.005,0.016,0.005,0.023   c0.01,4.403,3.594,7.982,7.999,7.982c4.411,0,8-3.589,8-8v-18c0-1.103,0.897-2,2-2s2,0.897,2,2c0,4.411,3.589,8,8,8s8-3.589,8-8   c0-1.103,0.897-2,2-2s2,0.897,2,2v27.008c0,4.964-4.038,9.002-9.002,9.002H48v-4.002c0-0.553-0.447-1-1-1   c-0.164,0-0.313,0.049-0.449,0.119L44,43.574v-0.586c0-0.553-0.447-1-1-1s-1,0.447-1,1v8.02H13z M44,46.402l2,2v1.174l-2-2V46.402z    M44,50.404l0.604,0.604H44V50.404z"/></g><text x="0" y="79" fill="#000000" font-size="5px" font-weight="bold" font-family="'Helvetica Neue', Helvetica, Arial-Unicode, Arial, Sans-serif">Created by lastspark</text><text x="0" y="84" fill="#000000" font-size="5px" font-weight="bold" font-family="'Helvetica Neue', Helvetica, Arial-Unicode, Arial, Sans-serif">from the Noun Project</text></svg>