<svg xmlns:dc="http://purl.org/dc/elements/1.1/" xmlns:cc="http://creativecommons.org/ns#" xmlns:rdf="http://www.w3.org/1999/02/22-rdf-syntax-ns#" xmlns:svg="http://www.w3.org/2000/svg" xmlns="http://www.w3.org/2000/svg" xmlns:sodipodi="http://sodipodi.sourceforge.net/DTD/sodipodi-0.dtd" xmlns:inkscape="http://www.inkscape.org/namespaces/inkscape" viewBox="0 0 32 40.00000125" version="1.1" x="0px" y="0px"><g transform="translate(0,-1020.3622)"><path style="color:#000000;font-style:normal;font-variant:normal;font-weight:normal;font-stretch:normal;font-size:medium;line-height:normal;font-family:sans-serif;text-indent:0;text-align:start;text-decoration:none;text-decoration-line:none;text-decoration-style:solid;text-decoration-color:#000000;letter-spacing:normal;word-spacing:normal;text-transform:none;direction:ltr;block-progression:tb;writing-mode:lr-tb;baseline-shift:baseline;text-anchor:start;white-space:normal;clip-rule:nonzero;display:inline;overflow:visible;visibility:visible;opacity:1;isolation:auto;mix-blend-mode:normal;color-interpolation:sRGB;color-interpolation-filters:linearRGB;solid-color:#000000;solid-opacity:1;fill:#000000;fill-opacity:1;fill-rule:nonzero;stroke:none;stroke-width:0.19843753;stroke-linecap:round;stroke-linejoin:round;stroke-miterlimit:4;stroke-dasharray:none;stroke-dashoffset:0;stroke-opacity:1;color-rendering:auto;image-rendering:auto;shape-rendering:auto;text-rendering:auto;enable-background:accumulate" d="m 16.004508,1022.2366 c 7.80548,0 14.12107,6.3156 14.12107,14.1211 0,6.1174 -3.886677,11.3094 -9.32228,13.2754 l -1.382815,-1.3848 c 5.167898,-1.4865 8.955098,-6.2469 8.955098,-11.8906 0,-6.8301 -5.540976,-12.371 -12.371073,-12.371 -6.8300968,0 -12.378934,5.5409 -12.378934,12.371 0,6.8301 5.5488372,12.3809 12.378934,12.3809 0.894577,0 1.764699,-0.1006 2.605493,-0.2812 l -0.02268,0.023 1.421896,1.4239 c -1.270791,0.3753 -2.612787,0.5839 -4.005883,0.5839 -7.8055178,0 -14.1289314,-6.3233 -14.1289314,-14.1289 0,-7.8054 6.3234136,-14.1211 14.1289314,-14.1211 z"/><path style="color:#000000;font-style:normal;font-variant:normal;font-weight:normal;font-stretch:normal;font-size:medium;line-height:normal;font-family:sans-serif;text-indent:0;text-align:start;text-decoration:none;text-decoration-line:none;text-decoration-style:solid;text-decoration-color:#000000;letter-spacing:normal;word-spacing:normal;text-transform:none;direction:ltr;block-progression:tb;writing-mode:lr-tb;baseline-shift:baseline;text-anchor:start;white-space:normal;clip-rule:nonzero;display:inline;overflow:visible;visibility:visible;opacity:1;isolation:auto;mix-blend-mode:normal;color-interpolation:sRGB;color-interpolation-filters:linearRGB;solid-color:#000000;solid-opacity:1;fill:#000000;fill-opacity:1;fill-rule:nonzero;stroke:none;stroke-width:0.19843753;stroke-linecap:round;stroke-linejoin:round;stroke-miterlimit:4;stroke-dasharray:none;stroke-dashoffset:0;stroke-opacity:1;color-rendering:auto;image-rendering:auto;shape-rendering:auto;text-rendering:auto;enable-background:accumulate" d="m 16.004508,1024.7327 c 6.424781,0 11.626998,5.2002 11.626998,11.625 0,4.363 -2.403326,8.1576 -5.955099,10.1465 l -1.3008,-1.3008 c 3.257575,-1.6155 5.505902,-4.9673 5.505902,-8.8457 0,-5.4494 -4.427603,-9.8691 -9.877001,-9.8691 -5.449398,0 -9.8769248,4.4197 -9.8769248,9.8691 0,5.4494 4.4275268,9.877 9.8769248,9.877 1.286098,0 2.511194,-0.2548 3.638702,-0.7032 l 1.330091,1.3262 c -1.50822,0.7145 -3.187993,1.127 -4.968793,1.127 -6.4248181,0 -11.6269215,-5.2023 -11.6269215,-11.627 0,-6.4248 5.2021034,-11.625 11.6269215,-11.625 z"/><path style="color:#000000;font-style:normal;font-variant:normal;font-weight:normal;font-stretch:normal;font-size:medium;line-height:normal;font-family:sans-serif;text-indent:0;text-align:start;text-decoration:none;text-decoration-line:none;text-decoration-style:solid;text-decoration-color:#000000;letter-spacing:normal;word-spacing:normal;text-transform:none;direction:ltr;block-progression:tb;writing-mode:lr-tb;baseline-shift:baseline;text-anchor:start;white-space:normal;clip-rule:nonzero;display:inline;overflow:visible;visibility:visible;opacity:1;isolation:auto;mix-blend-mode:normal;color-interpolation:sRGB;color-interpolation-filters:linearRGB;solid-color:#000000;solid-opacity:1;fill:#000000;fill-opacity:1;fill-rule:nonzero;stroke:none;stroke-width:0.19843753;stroke-linecap:round;stroke-linejoin:round;stroke-miterlimit:4;stroke-dasharray:none;stroke-dashoffset:0;stroke-opacity:1;color-rendering:auto;image-rendering:auto;shape-rendering:auto;text-rendering:auto;enable-background:accumulate" d="m 16.004508,1027.2346 c 5.043968,0 9.123099,4.079 9.123099,9.1231 0,2.3885 -0.920996,4.5543 -2.420032,6.1797 l -1.240176,-1.2402 c 1.184202,-1.3087 1.912101,-3.0383 1.912101,-4.9395 0,-4.0687 -3.306406,-7.3731 -7.374992,-7.3731 -4.068699,0 -7.375029,3.3044 -7.375029,7.3731 0,4.0687 3.30633,7.375 7.375029,7.375 1.896794,0 3.622186,-0.725 4.929675,-1.9043 l 1.240214,1.2403 c -1.624289,1.4939 -3.785801,2.4141 -6.169889,2.4141 -5.044006,0 -9.1250257,-4.0811 -9.1250257,-9.1251 0,-5.0441 4.0810197,-9.1231 9.1250257,-9.1231 z"/><path style="color:#000000;font-style:normal;font-variant:normal;font-weight:normal;font-stretch:normal;font-size:medium;line-height:normal;font-family:sans-serif;text-indent:0;text-align:start;text-decoration:none;text-decoration-line:none;text-decoration-style:solid;text-decoration-color:#000000;letter-spacing:normal;word-spacing:normal;text-transform:none;direction:ltr;block-progression:tb;writing-mode:lr-tb;baseline-shift:baseline;text-anchor:start;white-space:normal;clip-rule:nonzero;display:inline;overflow:visible;visibility:visible;opacity:1;isolation:auto;mix-blend-mode:normal;color-interpolation:sRGB;color-interpolation-filters:linearRGB;solid-color:#000000;solid-opacity:1;fill:#000000;fill-opacity:1;fill-rule:nonzero;stroke:none;stroke-width:0.19843753;stroke-linecap:round;stroke-linejoin:round;stroke-miterlimit:4;stroke-dasharray:none;stroke-dashoffset:0;stroke-opacity:1;color-rendering:auto;image-rendering:auto;shape-rendering:auto;text-rendering:auto;enable-background:accumulate" d="m 16.004508,1029.7366 c 3.663269,0 6.621089,2.9578 6.621089,6.6211 0,0.637 -0.09487,1.2512 -0.261543,1.834 l -1.503912,-1.502 c 0.0076,-0.11 0.01512,-0.2199 0.01512,-0.3318 0,-2.6879 -2.183207,-4.8711 -4.871093,-4.8711 -2.688,0 -4.878916,2.1831 -4.878916,4.8711 0,2.6879 2.190916,4.8808 4.878916,4.8808 2.260875,0 4.149203,-1.5581 4.697272,-3.6504 l 1.384705,1.3907 c -1.013102,2.358 -3.350097,4.0078 -6.081977,4.0078 -3.66342,0 -6.6289127,-2.9656 -6.6289127,-6.6289 0,-3.6634 2.9656057,-6.6212 6.6289127,-6.6211 z"/><path style="color:#000000;font-style:normal;font-variant:normal;font-weight:normal;font-stretch:normal;font-size:medium;line-height:normal;font-family:sans-serif;text-indent:0;text-align:start;text-decoration:none;text-decoration-line:none;text-decoration-style:solid;text-decoration-color:#000000;letter-spacing:normal;word-spacing:normal;text-transform:none;direction:ltr;block-progression:tb;writing-mode:lr-tb;baseline-shift:baseline;text-anchor:start;white-space:normal;clip-rule:nonzero;display:inline;overflow:visible;visibility:visible;opacity:1;isolation:auto;mix-blend-mode:normal;color-interpolation:sRGB;color-interpolation-filters:linearRGB;solid-color:#000000;solid-opacity:1;fill:#000000;fill-opacity:1;fill-rule:nonzero;stroke:none;stroke-width:0.19843753;stroke-linecap:round;stroke-linejoin:round;stroke-miterlimit:4;stroke-dasharray:none;stroke-dashoffset:0;stroke-opacity:1;color-rendering:auto;image-rendering:auto;shape-rendering:auto;text-rendering:auto;enable-background:accumulate" d="m 16.004508,1032.2328 c 2.28257,0 4.126979,1.8423 4.126979,4.1249 0,2.2826 -1.844409,4.1269 -4.126979,4.1269 -2.282607,0 -4.126903,-1.8443 -4.126903,-4.1269 0,-2.2826 1.844296,-4.1249 4.126903,-4.1249 z"/></g><text x="0" y="47.000001" fill="#000000" font-size="5px" font-weight="bold" font-family="'Helvetica Neue', Helvetica, Arial-Unicode, Arial, Sans-serif">Created by P Thanga Vignesh</text><text x="0" y="52.000001" fill="#000000" font-size="5px" font-weight="bold" font-family="'Helvetica Neue', Helvetica, Arial-Unicode, Arial, Sans-serif">from the Noun Project</text></svg>